<?xml version="1.0" encoding="UTF-8" standalone="no"?>
<!DOCTYPE svg PUBLIC "-//W3C//DTD SVG 1.1//EN"
 "http://www.w3.org/Graphics/SVG/1.1/DTD/svg11.dtd">
<!-- Generated by graphviz version 2.36.0 (20140111.2315)
 -->
<!-- Title: controllers_diagram Pages: 1 -->
<svg width="672pt" height="654pt"
 viewBox="0.00 0.00 672.00 654.00" xmlns="http://www.w3.org/2000/svg" xmlns:xlink="http://www.w3.org/1999/xlink">
<g id="graph0" class="graph" transform="scale(1 1) rotate(0) translate(4 650)">
<title>controllers_diagram</title>
<polygon fill="none" stroke="none" points="-4,4 -4,-650 668,-650 668,4 -4,4"/>
<!-- _diagram_info -->
<g id="node1" class="node"><title>_diagram_info</title>
<text text-anchor="start" x="458" y="-351.6" font-family="Times,serif" font-size="13.00">Controllers diagram</text>
<text text-anchor="start" x="458" y="-337.6" font-family="Times,serif" font-size="13.00">Date: May 30 2016 &#45; 02:57</text>
<text text-anchor="start" x="458" y="-323.6" font-family="Times,serif" font-size="13.00">Migration version: 20160528161910</text>
<text text-anchor="start" x="458" y="-309.6" font-family="Times,serif" font-size="13.00">Generated by RailRoady 1.4.2</text>
<text text-anchor="start" x="458" y="-295.6" font-family="Times,serif" font-size="13.00">http://railroady.prestonlee.com</text>
</g>
<!-- ResultsController -->
<g id="node2" class="node"><title>ResultsController</title>
<path fill="none" stroke="black" d="M318,-180.5C318,-180.5 406,-180.5 406,-180.5 412,-180.5 418,-186.5 418,-192.5 418,-192.5 418,-381.5 418,-381.5 418,-387.5 412,-393.5 406,-393.5 406,-393.5 318,-393.5 318,-393.5 312,-393.5 306,-387.5 306,-381.5 306,-381.5 306,-192.5 306,-192.5 306,-186.5 312,-180.5 318,-180.5"/>
<text text-anchor="middle" x="362" y="-378.3" font-family="Times,serif" font-size="14.00">ResultsController</text>
<polyline fill="none" stroke="black" points="306,-370.5 418,-370.5 "/>
<text text-anchor="start" x="314" y="-355.3" font-family="Times,serif" font-size="14.00">create</text>
<text text-anchor="start" x="314" y="-340.3" font-family="Times,serif" font-size="14.00">destroy</text>
<text text-anchor="start" x="314" y="-325.3" font-family="Times,serif" font-size="14.00">edit</text>
<text text-anchor="start" x="314" y="-310.3" font-family="Times,serif" font-size="14.00">index</text>
<text text-anchor="start" x="314" y="-295.3" font-family="Times,serif" font-size="14.00">new</text>
<text text-anchor="start" x="314" y="-280.3" font-family="Times,serif" font-size="14.00">show</text>
<text text-anchor="start" x="314" y="-265.3" font-family="Times,serif" font-size="14.00">update</text>
<polyline fill="none" stroke="black" points="306,-257.5 418,-257.5 "/>
<polyline fill="none" stroke="black" points="306,-233.5 418,-233.5 "/>
<text text-anchor="start" x="314" y="-218.3" font-family="Times,serif" font-size="14.00">_layout</text>
<text text-anchor="start" x="314" y="-203.3" font-family="Times,serif" font-size="14.00">result_params</text>
<text text-anchor="start" x="314" y="-188.3" font-family="Times,serif" font-size="14.00">set_result</text>
</g>
<!-- GroupsController -->
<g id="node3" class="node"><title>GroupsController</title>
<path fill="none" stroke="black" d="M174,-396.5C174,-396.5 262,-396.5 262,-396.5 268,-396.5 274,-402.5 274,-408.5 274,-408.5 274,-597.5 274,-597.5 274,-603.5 268,-609.5 262,-609.5 262,-609.5 174,-609.5 174,-609.5 168,-609.5 162,-603.5 162,-597.5 162,-597.5 162,-408.5 162,-408.5 162,-402.5 168,-396.5 174,-396.5"/>
<text text-anchor="middle" x="218" y="-594.3" font-family="Times,serif" font-size="14.00">GroupsController</text>
<polyline fill="none" stroke="black" points="162,-586.5 274,-586.5 "/>
<text text-anchor="start" x="170" y="-571.3" font-family="Times,serif" font-size="14.00">create</text>
<text text-anchor="start" x="170" y="-556.3" font-family="Times,serif" font-size="14.00">destroy</text>
<text text-anchor="start" x="170" y="-541.3" font-family="Times,serif" font-size="14.00">edit</text>
<text text-anchor="start" x="170" y="-526.3" font-family="Times,serif" font-size="14.00">index</text>
<text text-anchor="start" x="170" y="-511.3" font-family="Times,serif" font-size="14.00">new</text>
<text text-anchor="start" x="170" y="-496.3" font-family="Times,serif" font-size="14.00">show</text>
<text text-anchor="start" x="170" y="-481.3" font-family="Times,serif" font-size="14.00">update</text>
<polyline fill="none" stroke="black" points="162,-473.5 274,-473.5 "/>
<polyline fill="none" stroke="black" points="162,-449.5 274,-449.5 "/>
<text text-anchor="start" x="170" y="-434.3" font-family="Times,serif" font-size="14.00">_layout</text>
<text text-anchor="start" x="170" y="-419.3" font-family="Times,serif" font-size="14.00">group_params</text>
<text text-anchor="start" x="170" y="-404.3" font-family="Times,serif" font-size="14.00">set_group</text>
</g>
<!-- TutorsController -->
<g id="node4" class="node"><title>TutorsController</title>
<path fill="none" stroke="black" d="M462,-36.5C462,-36.5 545,-36.5 545,-36.5 551,-36.5 557,-42.5 557,-48.5 557,-48.5 557,-237.5 557,-237.5 557,-243.5 551,-249.5 545,-249.5 545,-249.5 462,-249.5 462,-249.5 456,-249.5 450,-243.5 450,-237.5 450,-237.5 450,-48.5 450,-48.5 450,-42.5 456,-36.5 462,-36.5"/>
<text text-anchor="middle" x="503.5" y="-234.3" font-family="Times,serif" font-size="14.00">TutorsController</text>
<polyline fill="none" stroke="black" points="450,-226.5 557,-226.5 "/>
<text text-anchor="start" x="458" y="-211.3" font-family="Times,serif" font-size="14.00">create</text>
<text text-anchor="start" x="458" y="-196.3" font-family="Times,serif" font-size="14.00">destroy</text>
<text text-anchor="start" x="458" y="-181.3" font-family="Times,serif" font-size="14.00">edit</text>
<text text-anchor="start" x="458" y="-166.3" font-family="Times,serif" font-size="14.00">index</text>
<text text-anchor="start" x="458" y="-151.3" font-family="Times,serif" font-size="14.00">new</text>
<text text-anchor="start" x="458" y="-136.3" font-family="Times,serif" font-size="14.00">show</text>
<text text-anchor="start" x="458" y="-121.3" font-family="Times,serif" font-size="14.00">update</text>
<polyline fill="none" stroke="black" points="450,-113.5 557,-113.5 "/>
<polyline fill="none" stroke="black" points="450,-89.5 557,-89.5 "/>
<text text-anchor="start" x="458" y="-74.3" font-family="Times,serif" font-size="14.00">_layout</text>
<text text-anchor="start" x="458" y="-59.3" font-family="Times,serif" font-size="14.00">set_tutor</text>
<text text-anchor="start" x="458" y="-44.3" font-family="Times,serif" font-size="14.00">tutor_params</text>
</g>
<!-- ApplicationController -->
<g id="node5" class="node"><title>ApplicationController</title>
<path fill="none" stroke="black" d="M246,-0.5C246,-0.5 358,-0.5 358,-0.5 364,-0.5 370,-6.5 370,-12.5 370,-12.5 370,-82.5 370,-82.5 370,-88.5 364,-94.5 358,-94.5 358,-94.5 246,-94.5 246,-94.5 240,-94.5 234,-88.5 234,-82.5 234,-82.5 234,-12.5 234,-12.5 234,-6.5 240,-0.5 246,-0.5"/>
<text text-anchor="middle" x="302" y="-79.3" font-family="Times,serif" font-size="14.00">ApplicationController</text>
<polyline fill="none" stroke="black" points="234,-71.5 370,-71.5 "/>
<polyline fill="none" stroke="black" points="234,-47.5 370,-47.5 "/>
<polyline fill="none" stroke="black" points="234,-23.5 370,-23.5 "/>
<text text-anchor="start" x="242" y="-8.3" font-family="Times,serif" font-size="14.00">_layout</text>
</g>
<!-- LessonsController -->
<g id="node6" class="node"><title>LessonsController</title>
<path fill="none" stroke="black" d="M174,-126.5C174,-126.5 266,-126.5 266,-126.5 272,-126.5 278,-132.5 278,-138.5 278,-138.5 278,-342.5 278,-342.5 278,-348.5 272,-354.5 266,-354.5 266,-354.5 174,-354.5 174,-354.5 168,-354.5 162,-348.5 162,-342.5 162,-342.5 162,-138.5 162,-138.5 162,-132.5 168,-126.5 174,-126.5"/>
<text text-anchor="middle" x="220" y="-339.3" font-family="Times,serif" font-size="14.00">LessonsController</text>
<polyline fill="none" stroke="black" points="162,-331.5 278,-331.5 "/>
<text text-anchor="start" x="170" y="-316.3" font-family="Times,serif" font-size="14.00">attendance</text>
<text text-anchor="start" x="170" y="-301.3" font-family="Times,serif" font-size="14.00">create</text>
<text text-anchor="start" x="170" y="-286.3" font-family="Times,serif" font-size="14.00">destroy</text>
<text text-anchor="start" x="170" y="-271.3" font-family="Times,serif" font-size="14.00">edit</text>
<text text-anchor="start" x="170" y="-256.3" font-family="Times,serif" font-size="14.00">index</text>
<text text-anchor="start" x="170" y="-241.3" font-family="Times,serif" font-size="14.00">new</text>
<text text-anchor="start" x="170" y="-226.3" font-family="Times,serif" font-size="14.00">show</text>
<text text-anchor="start" x="170" y="-211.3" font-family="Times,serif" font-size="14.00">update</text>
<polyline fill="none" stroke="black" points="162,-203.5 278,-203.5 "/>
<polyline fill="none" stroke="black" points="162,-179.5 278,-179.5 "/>
<text text-anchor="start" x="170" y="-164.3" font-family="Times,serif" font-size="14.00">_layout</text>
<text text-anchor="start" x="170" y="-149.3" font-family="Times,serif" font-size="14.00">lesson_params</text>
<text text-anchor="start" x="170" y="-134.3" font-family="Times,serif" font-size="14.00">set_lesson</text>
</g>
<!-- AttendanceController -->
<g id="node7" class="node"><title>AttendanceController</title>
<path fill="none" stroke="black" d="M12,-108.5C12,-108.5 122,-108.5 122,-108.5 128,-108.5 134,-114.5 134,-120.5 134,-120.5 134,-204.5 134,-204.5 134,-210.5 128,-216.5 122,-216.5 122,-216.5 12,-216.5 12,-216.5 6,-216.5 0,-210.5 0,-204.5 0,-204.5 0,-120.5 0,-120.5 0,-114.5 6,-108.5 12,-108.5"/>
<text text-anchor="middle" x="67" y="-201.3" font-family="Times,serif" font-size="14.00">AttendanceController</text>
<polyline fill="none" stroke="black" points="0,-193.5 134,-193.5 "/>
<text text-anchor="start" x="8" y="-178.3" font-family="Times,serif" font-size="14.00">index</text>
<text text-anchor="start" x="8" y="-163.3" font-family="Times,serif" font-size="14.00">parse</text>
<polyline fill="none" stroke="black" points="0,-155.5 134,-155.5 "/>
<polyline fill="none" stroke="black" points="0,-131.5 134,-131.5 "/>
<text text-anchor="start" x="8" y="-116.3" font-family="Times,serif" font-size="14.00">_layout</text>
</g>
<!-- StudentsController -->
<g id="node8" class="node"><title>StudentsController</title>
<path fill="none" stroke="black" d="M426,-432.5C426,-432.5 521,-432.5 521,-432.5 527,-432.5 533,-438.5 533,-444.5 533,-444.5 533,-633.5 533,-633.5 533,-639.5 527,-645.5 521,-645.5 521,-645.5 426,-645.5 426,-645.5 420,-645.5 414,-639.5 414,-633.5 414,-633.5 414,-444.5 414,-444.5 414,-438.5 420,-432.5 426,-432.5"/>
<text text-anchor="middle" x="473.5" y="-630.3" font-family="Times,serif" font-size="14.00">StudentsController</text>
<polyline fill="none" stroke="black" points="414,-622.5 533,-622.5 "/>
<text text-anchor="start" x="422" y="-607.3" font-family="Times,serif" font-size="14.00">create</text>
<text text-anchor="start" x="422" y="-592.3" font-family="Times,serif" font-size="14.00">destroy</text>
<text text-anchor="start" x="422" y="-577.3" font-family="Times,serif" font-size="14.00">edit</text>
<text text-anchor="start" x="422" y="-562.3" font-family="Times,serif" font-size="14.00">index</text>
<text text-anchor="start" x="422" y="-547.3" font-family="Times,serif" font-size="14.00">new</text>
<text text-anchor="start" x="422" y="-532.3" font-family="Times,serif" font-size="14.00">show</text>
<text text-anchor="start" x="422" y="-517.3" font-family="Times,serif" font-size="14.00">update</text>
<polyline fill="none" stroke="black" points="414,-509.5 533,-509.5 "/>
<polyline fill="none" stroke="black" points="414,-485.5 533,-485.5 "/>
<text text-anchor="start" x="422" y="-470.3" font-family="Times,serif" font-size="14.00">_layout</text>
<text text-anchor="start" x="422" y="-455.3" font-family="Times,serif" font-size="14.00">set_student</text>
<text text-anchor="start" x="422" y="-440.3" font-family="Times,serif" font-size="14.00">student_params</text>
</g>
<!-- CoursesController -->
<g id="node9" class="node"><title>CoursesController</title>
<path fill="none" stroke="black" d="M30,-252.5C30,-252.5 122,-252.5 122,-252.5 128,-252.5 134,-258.5 134,-264.5 134,-264.5 134,-453.5 134,-453.5 134,-459.5 128,-465.5 122,-465.5 122,-465.5 30,-465.5 30,-465.5 24,-465.5 18,-459.5 18,-453.5 18,-453.5 18,-264.5 18,-264.5 18,-258.5 24,-252.5 30,-252.5"/>
<text text-anchor="middle" x="76" y="-450.3" font-family="Times,serif" font-size="14.00">CoursesController</text>
<polyline fill="none" stroke="black" points="18,-442.5 134,-442.5 "/>
<text text-anchor="start" x="26" y="-427.3" font-family="Times,serif" font-size="14.00">create</text>
<text text-anchor="start" x="26" y="-412.3" font-family="Times,serif" font-size="14.00">destroy</text>
<text text-anchor="start" x="26" y="-397.3" font-family="Times,serif" font-size="14.00">edit</text>
<text text-anchor="start" x="26" y="-382.3" font-family="Times,serif" font-size="14.00">index</text>
<text text-anchor="start" x="26" y="-367.3" font-family="Times,serif" font-size="14.00">new</text>
<text text-anchor="start" x="26" y="-352.3" font-family="Times,serif" font-size="14.00">show</text>
<text text-anchor="start" x="26" y="-337.3" font-family="Times,serif" font-size="14.00">update</text>
<polyline fill="none" stroke="black" points="18,-329.5 134,-329.5 "/>
<polyline fill="none" stroke="black" points="18,-305.5 134,-305.5 "/>
<text text-anchor="start" x="26" y="-290.3" font-family="Times,serif" font-size="14.00">_layout</text>
<text text-anchor="start" x="26" y="-275.3" font-family="Times,serif" font-size="14.00">course_params</text>
<text text-anchor="start" x="26" y="-260.3" font-family="Times,serif" font-size="14.00">set_course</text>
</g>
</g>
</svg>
