<?xml version="1.0" encoding="UTF-8" standalone="no"?>
<!DOCTYPE svg PUBLIC "-//W3C//DTD SVG 1.1//EN"
 "http://www.w3.org/Graphics/SVG/1.1/DTD/svg11.dtd">
<!-- Generated by graphviz version 2.36.0 (20140111.2315)
 -->
<!-- Title: models_diagram Pages: 1 -->
<svg width="368pt" height="374pt"
 viewBox="0.00 0.00 368.00 374.00" xmlns="http://www.w3.org/2000/svg" xmlns:xlink="http://www.w3.org/1999/xlink">
<g id="graph0" class="graph" transform="scale(1 1) rotate(0) translate(4 370)">
<title>models_diagram</title>
<polygon fill="none" stroke="none" points="-4,4 -4,-370 364,-370 364,4 -4,4"/>
<!-- _diagram_info -->
<g id="node1" class="node"><title>_diagram_info</title>
<text text-anchor="start" x="7" y="-351.6" font-family="Times,serif" font-size="13.00">Models diagram</text>
<text text-anchor="start" x="7" y="-337.6" font-family="Times,serif" font-size="13.00">Date: May 30 2016 &#45; 02:57</text>
<text text-anchor="start" x="7" y="-323.6" font-family="Times,serif" font-size="13.00">Migration version: 20160528161910</text>
<text text-anchor="start" x="7" y="-309.6" font-family="Times,serif" font-size="13.00">Generated by RailRoady 1.4.2</text>
<text text-anchor="start" x="7" y="-295.6" font-family="Times,serif" font-size="13.00">http://railroady.prestonlee.com</text>
</g>
<!-- Lesson -->
<g id="node2" class="node"><title>Lesson</title>
<ellipse fill="none" stroke="black" cx="232" cy="-90" rx="35.6194" ry="18"/>
<text text-anchor="middle" x="232" y="-86.3" font-family="Times,serif" font-size="14.00">Lesson</text>
</g>
<!-- Result -->
<g id="node7" class="node"><title>Result</title>
<ellipse fill="none" stroke="black" cx="277" cy="-18" rx="33.2209" ry="18"/>
<text text-anchor="middle" x="277" y="-14.3" font-family="Times,serif" font-size="14.00">Result</text>
</g>
<!-- Lesson&#45;&gt;Result -->
<g id="edge1" class="edge"><title>Lesson&#45;&gt;Result</title>
<path fill="none" stroke="#27e826" d="M246.934,-65.7693C251.471,-58.7113 256.473,-50.9308 261.073,-43.7753"/>
<ellipse fill="none" stroke="#27e826" cx="244.6" cy="-69.3999" rx="4.00002" ry="4.00002"/>
<polygon fill="#27e826" stroke="#27e826" points="261.212,-43.5591 270.405,-37.5807 263.916,-39.3532 266.62,-35.1473 266.62,-35.1473 266.62,-35.1473 263.916,-39.3532 262.834,-32.7139 261.212,-43.5591 261.212,-43.5591"/>
</g>
<!-- Tutor -->
<g id="node3" class="node"><title>Tutor</title>
<ellipse fill="none" stroke="black" cx="262" cy="-327" rx="30.3206" ry="18"/>
<text text-anchor="middle" x="262" y="-323.3" font-family="Times,serif" font-size="14.00">Tutor</text>
</g>
<!-- Course -->
<g id="node5" class="node"><title>Course</title>
<ellipse fill="none" stroke="black" cx="262" cy="-234" rx="35.6194" ry="18"/>
<text text-anchor="middle" x="262" y="-230.3" font-family="Times,serif" font-size="14.00">Course</text>
</g>
<!-- Tutor&#45;&gt;Course -->
<g id="edge2" class="edge"><title>Tutor&#45;&gt;Course</title>
<path fill="none" stroke="#f598de" d="M262,-298.549C262,-287.083 262,-273.792 262,-262.339"/>
<polygon fill="#f598de" stroke="#f598de" points="262,-298.884 257.5,-308.884 262,-303.884 262,-308.884 262,-308.884 262,-308.884 262,-303.884 266.5,-308.884 262,-298.884 262,-298.884"/>
<polygon fill="#f598de" stroke="#f598de" points="262,-262.04 266.5,-252.04 262,-257.04 262,-252.04 262,-252.04 262,-252.04 262,-257.04 257.5,-252.04 262,-262.04 262,-262.04"/>
</g>
<!-- Student -->
<g id="node4" class="node"><title>Student</title>
<ellipse fill="none" stroke="black" cx="323" cy="-90" rx="37.5442" ry="18"/>
<text text-anchor="middle" x="323" y="-86.3" font-family="Times,serif" font-size="14.00">Student</text>
</g>
<!-- Student&#45;&gt;Result -->
<g id="edge3" class="edge"><title>Student&#45;&gt;Result</title>
<path fill="none" stroke="#bf0780" d="M307.574,-65.5255C303.018,-58.5919 298.015,-50.9789 293.399,-43.9555"/>
<ellipse fill="none" stroke="#bf0780" cx="309.902" cy="-69.0681" rx="4.00002" ry="4.00002"/>
<polygon fill="#bf0780" stroke="#bf0780" points="293.315,-43.827 291.584,-32.9986 290.569,-39.6485 287.823,-35.4699 287.823,-35.4699 287.823,-35.4699 290.569,-39.6485 284.062,-37.9413 293.315,-43.827 293.315,-43.827"/>
</g>
<!-- Course&#45;&gt;Lesson -->
<g id="edge4" class="edge"><title>Course&#45;&gt;Lesson</title>
<path fill="none" stroke="#19f9a3" d="M256.703,-207.929C251.378,-182.725 243.196,-143.994 237.724,-118.095"/>
<ellipse fill="none" stroke="#19f9a3" cx="257.554" cy="-211.958" rx="4.00001" ry="4.00001"/>
<polygon fill="#19f9a3" stroke="#19f9a3" points="237.699,-117.973 240.034,-107.259 236.665,-113.081 235.632,-108.189 235.632,-108.189 235.632,-108.189 236.665,-113.081 231.229,-109.119 237.699,-117.973 237.699,-117.973"/>
</g>
<!-- Group -->
<g id="node6" class="node"><title>Group</title>
<ellipse fill="none" stroke="black" cx="293" cy="-162" rx="33.2209" ry="18"/>
<text text-anchor="middle" x="293" y="-158.3" font-family="Times,serif" font-size="14.00">Group</text>
</g>
<!-- Course&#45;&gt;Group -->
<g id="edge5" class="edge"><title>Course&#45;&gt;Group</title>
<path fill="none" stroke="#3baff5" d="M273.641,-206.714C276.2,-200.935 278.909,-194.818 281.464,-189.049"/>
<polygon fill="#3baff5" stroke="#3baff5" points="273.554,-206.911 265.39,-214.233 271.529,-211.483 269.504,-216.055 269.504,-216.055 269.504,-216.055 271.529,-211.483 273.619,-217.877 273.554,-206.911 273.554,-206.911"/>
<polygon fill="#3baff5" stroke="#3baff5" points="281.516,-188.933 289.679,-181.611 283.54,-184.361 285.565,-179.789 285.565,-179.789 285.565,-179.789 283.54,-184.361 281.45,-177.967 281.516,-188.933 281.516,-188.933"/>
</g>
<!-- Group&#45;&gt;Lesson -->
<g id="edge7" class="edge"><title>Group&#45;&gt;Lesson</title>
<path fill="none" stroke="#bf6f1d" d="M274.044,-139.247C267.224,-131.421 259.501,-122.559 252.552,-114.584"/>
<ellipse fill="none" stroke="#bf6f1d" cx="276.834" cy="-142.449" rx="4.00002" ry="4.00002"/>
<polygon fill="#bf6f1d" stroke="#bf6f1d" points="252.493,-114.516 249.316,-104.021 249.208,-110.747 245.923,-106.977 245.923,-106.977 245.923,-106.977 249.208,-110.747 242.53,-109.934 252.493,-114.516 252.493,-114.516"/>
</g>
<!-- Group&#45;&gt;Student -->
<g id="edge6" class="edge"><title>Group&#45;&gt;Student</title>
<path fill="none" stroke="#fd2b40" d="M303.381,-136.778C306.053,-130.544 308.941,-123.805 311.659,-117.463"/>
<ellipse fill="none" stroke="#fd2b40" cx="301.685" cy="-140.734" rx="4.00002" ry="4.00002"/>
<polygon fill="#fd2b40" stroke="#fd2b40" points="311.794,-117.148 319.869,-109.729 313.763,-112.552 315.733,-107.956 315.733,-107.956 315.733,-107.956 313.763,-112.552 311.597,-106.184 311.794,-117.148 311.794,-117.148"/>
</g>
</g>
</svg>
