<?xml version="1.0" encoding="UTF-8" standalone="no"?>
<!DOCTYPE svg PUBLIC "-//W3C//DTD SVG 1.1//EN"
 "http://www.w3.org/Graphics/SVG/1.1/DTD/svg11.dtd">
<!-- Generated by graphviz version 2.36.0 (20140111.2315)
 -->
<!-- Title: models_diagram Pages: 1 -->
<svg width="670pt" height="868pt"
 viewBox="0.00 0.00 670.00 868.00" xmlns="http://www.w3.org/2000/svg" xmlns:xlink="http://www.w3.org/1999/xlink">
<g id="graph0" class="graph" transform="scale(1 1) rotate(0) translate(4 864)">
<title>models_diagram</title>
<polygon fill="none" stroke="none" points="-4,4 -4,-864 666,-864 666,4 -4,4"/>
<!-- _diagram_info -->
<g id="node1" class="node"><title>_diagram_info</title>
<text text-anchor="start" x="7" y="-823.6" font-family="Times,serif" font-size="13.00">Models diagram</text>
<text text-anchor="start" x="7" y="-809.6" font-family="Times,serif" font-size="13.00">Date: May 30 2016 &#45; 02:57</text>
<text text-anchor="start" x="7" y="-795.6" font-family="Times,serif" font-size="13.00">Migration version: 20160528161910</text>
<text text-anchor="start" x="7" y="-781.6" font-family="Times,serif" font-size="13.00">Generated by RailRoady 1.4.2</text>
<text text-anchor="start" x="7" y="-767.6" font-family="Times,serif" font-size="13.00">http://railroady.prestonlee.com</text>
</g>
<!-- Lesson -->
<g id="node2" class="node"><title>Lesson</title>
<path fill="none" stroke="black" d="M168,-174.5C168,-174.5 388,-174.5 388,-174.5 394,-174.5 400,-180.5 400,-186.5 400,-186.5 400,-313.5 400,-313.5 400,-319.5 394,-325.5 388,-325.5 388,-325.5 168,-325.5 168,-325.5 162,-325.5 156,-319.5 156,-313.5 156,-313.5 156,-186.5 156,-186.5 156,-180.5 162,-174.5 168,-174.5"/>
<text text-anchor="middle" x="278" y="-310.3" font-family="Times,serif" font-size="14.00">Lesson</text>
<polyline fill="none" stroke="black" points="156,-302.5 400,-302.5 "/>
<text text-anchor="start" x="164" y="-287.3" font-family="Times,serif" font-size="14.00">id :integer</text>
<text text-anchor="start" x="164" y="-272.3" font-family="Times,serif" font-size="14.00">course_id :integer</text>
<text text-anchor="start" x="164" y="-257.3" font-family="Times,serif" font-size="14.00">typeL :text</text>
<text text-anchor="start" x="164" y="-242.3" font-family="Times,serif" font-size="14.00">typeA :text</text>
<text text-anchor="start" x="164" y="-227.3" font-family="Times,serif" font-size="14.00">date :date</text>
<text text-anchor="start" x="164" y="-212.3" font-family="Times,serif" font-size="14.00">created_at :timestamp without time zone</text>
<text text-anchor="start" x="164" y="-197.3" font-family="Times,serif" font-size="14.00">updated_at :timestamp without time zone</text>
<text text-anchor="start" x="164" y="-182.3" font-family="Times,serif" font-size="14.00">group_id :integer</text>
</g>
<!-- Result -->
<g id="node7" class="node"><title>Result</title>
<path fill="none" stroke="black" d="M299,-1C299,-1 519,-1 519,-1 525,-1 531,-7 531,-13 531,-13 531,-125 531,-125 531,-131 525,-137 519,-137 519,-137 299,-137 299,-137 293,-137 287,-131 287,-125 287,-125 287,-13 287,-13 287,-7 293,-1 299,-1"/>
<text text-anchor="middle" x="409" y="-121.8" font-family="Times,serif" font-size="14.00">Result</text>
<polyline fill="none" stroke="black" points="287,-114 531,-114 "/>
<text text-anchor="start" x="295" y="-98.8" font-family="Times,serif" font-size="14.00">id :integer</text>
<text text-anchor="start" x="295" y="-83.8" font-family="Times,serif" font-size="14.00">attendance :boolean</text>
<text text-anchor="start" x="295" y="-68.8" font-family="Times,serif" font-size="14.00">mark :integer</text>
<text text-anchor="start" x="295" y="-53.8" font-family="Times,serif" font-size="14.00">student_id :integer</text>
<text text-anchor="start" x="295" y="-38.8" font-family="Times,serif" font-size="14.00">lesson_id :integer</text>
<text text-anchor="start" x="295" y="-23.8" font-family="Times,serif" font-size="14.00">created_at :timestamp without time zone</text>
<text text-anchor="start" x="295" y="-8.8" font-family="Times,serif" font-size="14.00">updated_at :timestamp without time zone</text>
</g>
<!-- Lesson&#45;&gt;Result -->
<g id="edge1" class="edge"><title>Lesson&#45;&gt;Result</title>
<path fill="none" stroke="#8bcb2a" d="M337.513,-167.681C342.899,-160.321 348.34,-152.886 353.688,-145.578"/>
<ellipse fill="none" stroke="#8bcb2a" cx="334.97" cy="-171.156" rx="4.00002" ry="4.00002"/>
<polygon fill="#8bcb2a" stroke="#8bcb2a" points="354.009,-145.14 363.547,-139.728 356.962,-141.105 359.915,-137.07 359.915,-137.07 359.915,-137.07 356.962,-141.105 356.284,-134.413 354.009,-145.14 354.009,-145.14"/>
</g>
<!-- Tutor -->
<g id="node3" class="node"><title>Tutor</title>
<path fill="none" stroke="black" d="M243,-738.5C243,-738.5 463,-738.5 463,-738.5 469,-738.5 475,-744.5 475,-750.5 475,-750.5 475,-847.5 475,-847.5 475,-853.5 469,-859.5 463,-859.5 463,-859.5 243,-859.5 243,-859.5 237,-859.5 231,-853.5 231,-847.5 231,-847.5 231,-750.5 231,-750.5 231,-744.5 237,-738.5 243,-738.5"/>
<text text-anchor="middle" x="353" y="-844.3" font-family="Times,serif" font-size="14.00">Tutor</text>
<polyline fill="none" stroke="black" points="231,-836.5 475,-836.5 "/>
<text text-anchor="start" x="239" y="-821.3" font-family="Times,serif" font-size="14.00">id :integer</text>
<text text-anchor="start" x="239" y="-806.3" font-family="Times,serif" font-size="14.00">first_name :text</text>
<text text-anchor="start" x="239" y="-791.3" font-family="Times,serif" font-size="14.00">second_name :text</text>
<text text-anchor="start" x="239" y="-776.3" font-family="Times,serif" font-size="14.00">last_name :text</text>
<text text-anchor="start" x="239" y="-761.3" font-family="Times,serif" font-size="14.00">created_at :timestamp without time zone</text>
<text text-anchor="start" x="239" y="-746.3" font-family="Times,serif" font-size="14.00">updated_at :timestamp without time zone</text>
</g>
<!-- Course -->
<g id="node5" class="node"><title>Course</title>
<path fill="none" stroke="black" d="M243,-490.5C243,-490.5 463,-490.5 463,-490.5 469,-490.5 475,-496.5 475,-502.5 475,-502.5 475,-689.5 475,-689.5 475,-695.5 469,-701.5 463,-701.5 463,-701.5 243,-701.5 243,-701.5 237,-701.5 231,-695.5 231,-689.5 231,-689.5 231,-502.5 231,-502.5 231,-496.5 237,-490.5 243,-490.5"/>
<text text-anchor="middle" x="353" y="-686.3" font-family="Times,serif" font-size="14.00">Course</text>
<polyline fill="none" stroke="black" points="231,-678.5 475,-678.5 "/>
<text text-anchor="start" x="239" y="-663.3" font-family="Times,serif" font-size="14.00">id :integer</text>
<text text-anchor="start" x="239" y="-648.3" font-family="Times,serif" font-size="14.00">name :text</text>
<text text-anchor="start" x="239" y="-633.3" font-family="Times,serif" font-size="14.00">started_date :date</text>
<text text-anchor="start" x="239" y="-618.3" font-family="Times,serif" font-size="14.00">finished_date :date</text>
<text text-anchor="start" x="239" y="-603.3" font-family="Times,serif" font-size="14.00">period :integer</text>
<text text-anchor="start" x="239" y="-588.3" font-family="Times,serif" font-size="14.00">wday :integer</text>
<text text-anchor="start" x="239" y="-573.3" font-family="Times,serif" font-size="14.00">room_name :text</text>
<text text-anchor="start" x="239" y="-558.3" font-family="Times,serif" font-size="14.00">created_at :timestamp without time zone</text>
<text text-anchor="start" x="239" y="-543.3" font-family="Times,serif" font-size="14.00">updated_at :timestamp without time zone</text>
<text text-anchor="start" x="239" y="-528.3" font-family="Times,serif" font-size="14.00">human_htype :text</text>
<text text-anchor="start" x="239" y="-513.3" font-family="Times,serif" font-size="14.00">started_time :integer</text>
<text text-anchor="start" x="239" y="-498.3" font-family="Times,serif" font-size="14.00">finished_time :integer</text>
</g>
<!-- Tutor&#45;&gt;Course -->
<g id="edge2" class="edge"><title>Tutor&#45;&gt;Course</title>
<path fill="none" stroke="#479cb6" d="M353,-728.004C353,-722.801 353,-717.479 353,-712.099"/>
<polygon fill="#479cb6" stroke="#479cb6" points="353,-728.238 348.5,-738.238 353,-733.238 353,-738.238 353,-738.238 353,-738.238 353,-733.238 357.5,-738.238 353,-728.238 353,-728.238"/>
<polygon fill="#479cb6" stroke="#479cb6" points="353,-711.699 357.5,-701.699 353,-706.699 353,-701.699 353,-701.699 353,-701.699 353,-706.699 348.5,-701.699 353,-711.699 353,-711.699"/>
</g>
<!-- Student -->
<g id="node4" class="node"><title>Student</title>
<path fill="none" stroke="black" d="M430,-182C430,-182 650,-182 650,-182 656,-182 662,-188 662,-194 662,-194 662,-306 662,-306 662,-312 656,-318 650,-318 650,-318 430,-318 430,-318 424,-318 418,-312 418,-306 418,-306 418,-194 418,-194 418,-188 424,-182 430,-182"/>
<text text-anchor="middle" x="540" y="-302.8" font-family="Times,serif" font-size="14.00">Student</text>
<polyline fill="none" stroke="black" points="418,-295 662,-295 "/>
<text text-anchor="start" x="426" y="-279.8" font-family="Times,serif" font-size="14.00">id :integer</text>
<text text-anchor="start" x="426" y="-264.8" font-family="Times,serif" font-size="14.00">first_name :text</text>
<text text-anchor="start" x="426" y="-249.8" font-family="Times,serif" font-size="14.00">second_name :text</text>
<text text-anchor="start" x="426" y="-234.8" font-family="Times,serif" font-size="14.00">last_name :text</text>
<text text-anchor="start" x="426" y="-219.8" font-family="Times,serif" font-size="14.00">group_id :integer</text>
<text text-anchor="start" x="426" y="-204.8" font-family="Times,serif" font-size="14.00">created_at :timestamp without time zone</text>
<text text-anchor="start" x="426" y="-189.8" font-family="Times,serif" font-size="14.00">updated_at :timestamp without time zone</text>
</g>
<!-- Student&#45;&gt;Result -->
<g id="edge3" class="edge"><title>Student&#45;&gt;Result</title>
<path fill="none" stroke="#f01942" d="M486.058,-175.293C478.854,-165.45 471.457,-155.342 464.231,-145.469"/>
<ellipse fill="none" stroke="#f01942" cx="488.485" cy="-178.61" rx="4.00002" ry="4.00002"/>
<polygon fill="#f01942" stroke="#f01942" points="464.116,-145.311 461.841,-134.583 461.163,-141.276 458.21,-137.241 458.21,-137.241 458.21,-137.241 461.163,-141.276 454.578,-139.899 464.116,-145.311 464.116,-145.311"/>
</g>
<!-- Course&#45;&gt;Lesson -->
<g id="edge4" class="edge"><title>Course&#45;&gt;Lesson</title>
<path fill="none" stroke="#931286" d="M305.09,-482.548C302.017,-472.997 299.257,-463.397 297,-454 287.82,-415.775 283.029,-372.511 280.547,-335.774"/>
<ellipse fill="none" stroke="#931286" cx="306.362" cy="-486.395" rx="4.00001" ry="4.00001"/>
<polygon fill="#931286" stroke="#931286" points="280.535,-335.575 284.398,-325.312 280.221,-330.585 279.906,-325.595 279.906,-325.595 279.906,-325.595 280.221,-330.585 275.415,-325.877 280.535,-335.575 280.535,-335.575"/>
</g>
<!-- Group -->
<g id="node6" class="node"><title>Group</title>
<path fill="none" stroke="black" d="M318,-362.5C318,-362.5 538,-362.5 538,-362.5 544,-362.5 550,-368.5 550,-374.5 550,-374.5 550,-441.5 550,-441.5 550,-447.5 544,-453.5 538,-453.5 538,-453.5 318,-453.5 318,-453.5 312,-453.5 306,-447.5 306,-441.5 306,-441.5 306,-374.5 306,-374.5 306,-368.5 312,-362.5 318,-362.5"/>
<text text-anchor="middle" x="428" y="-438.3" font-family="Times,serif" font-size="14.00">Group</text>
<polyline fill="none" stroke="black" points="306,-430.5 550,-430.5 "/>
<text text-anchor="start" x="314" y="-415.3" font-family="Times,serif" font-size="14.00">id :integer</text>
<text text-anchor="start" x="314" y="-400.3" font-family="Times,serif" font-size="14.00">name :text</text>
<text text-anchor="start" x="314" y="-385.3" font-family="Times,serif" font-size="14.00">created_at :timestamp without time zone</text>
<text text-anchor="start" x="314" y="-370.3" font-family="Times,serif" font-size="14.00">updated_at :timestamp without time zone</text>
</g>
<!-- Course&#45;&gt;Group -->
<g id="edge5" class="edge"><title>Course&#45;&gt;Group</title>
<path fill="none" stroke="#0239df" d="M398.961,-481.017C401.443,-474.861 403.873,-468.835 406.204,-463.053"/>
<polygon fill="#0239df" stroke="#0239df" points="398.953,-481.037 391.04,-488.629 397.083,-485.675 395.213,-490.312 395.213,-490.312 395.213,-490.312 397.083,-485.675 399.387,-491.995 398.953,-481.037 398.953,-481.037"/>
<polygon fill="#0239df" stroke="#0239df" points="406.286,-462.85 414.199,-455.259 408.156,-458.213 410.026,-453.576 410.026,-453.576 410.026,-453.576 408.156,-458.213 405.852,-451.893 406.286,-462.85 406.286,-462.85"/>
</g>
<!-- Group&#45;&gt;Lesson -->
<g id="edge7" class="edge"><title>Group&#45;&gt;Lesson</title>
<path fill="none" stroke="#886640" d="M379.253,-356.303C372.059,-348.821 364.496,-340.956 356.88,-333.035"/>
<ellipse fill="none" stroke="#886640" cx="382.244" cy="-359.413" rx="4.00002" ry="4.00002"/>
<polygon fill="#886640" stroke="#886640" points="356.81,-332.963 353.123,-322.635 353.345,-329.358 349.879,-325.754 349.879,-325.754 349.879,-325.754 353.345,-329.358 346.635,-328.873 356.81,-332.963 356.81,-332.963"/>
</g>
<!-- Group&#45;&gt;Student -->
<g id="edge6" class="edge"><title>Group&#45;&gt;Student</title>
<path fill="none" stroke="#2c591b" d="M464.814,-355.723C471.56,-346.328 478.728,-336.344 485.856,-326.416"/>
<ellipse fill="none" stroke="#2c591b" cx="462.428" cy="-359.047" rx="4.00002" ry="4.00002"/>
<polygon fill="#2c591b" stroke="#2c591b" points="485.991,-326.226 495.479,-320.728 488.907,-322.165 491.823,-318.103 491.823,-318.103 491.823,-318.103 488.907,-322.165 488.168,-315.479 485.991,-326.226 485.991,-326.226"/>
</g>
</g>
</svg>
